<?xml version="1.0" encoding="UTF-8" standalone="no"?>
<!DOCTYPE svg PUBLIC "-//W3C//DTD SVG 1.1//EN"
 "http://www.w3.org/Graphics/SVG/1.1/DTD/svg11.dtd">
<!-- Generated by graphviz version 2.43.0 (0)
 -->
<!-- Title: snakemake_dag Pages: 1 -->
<svg width="395pt" height="476pt"
 viewBox="0.00 0.00 394.50 476.00" xmlns="http://www.w3.org/2000/svg" xmlns:xlink="http://www.w3.org/1999/xlink">
<g id="graph0" class="graph" transform="scale(1 1) rotate(0) translate(4 472)">
<title>snakemake_dag</title>
<polygon fill="white" stroke="transparent" points="-4,4 -4,-472 390.5,-472 390.5,4 -4,4"/>
<!-- 1 -->
<g id="node1" class="node">
<title>1</title>
<path fill="none" stroke="#56d86b" stroke-width="2" d="M162.5,-180C162.5,-180 132.5,-180 132.5,-180 126.5,-180 120.5,-174 120.5,-168 120.5,-168 120.5,-156 120.5,-156 120.5,-150 126.5,-144 132.5,-144 132.5,-144 162.5,-144 162.5,-144 168.5,-144 174.5,-150 174.5,-156 174.5,-156 174.5,-168 174.5,-168 174.5,-174 168.5,-180 162.5,-180"/>
<text text-anchor="middle" x="147.5" y="-159.5" font-family="sans" font-size="10.00">bbnorm</text>
</g>
<!-- 2 -->
<g id="node2" class="node">
<title>2</title>
<path fill="none" stroke="#5682d8" stroke-width="2" d="M238.5,-252C238.5,-252 158.5,-252 158.5,-252 152.5,-252 146.5,-246 146.5,-240 146.5,-240 146.5,-228 146.5,-228 146.5,-222 152.5,-216 158.5,-216 158.5,-216 238.5,-216 238.5,-216 244.5,-216 250.5,-222 250.5,-228 250.5,-228 250.5,-240 250.5,-240 250.5,-246 244.5,-252 238.5,-252"/>
<text text-anchor="middle" x="198.5" y="-231.5" font-family="sans" font-size="10.00">combine_illumina</text>
</g>
<!-- 2&#45;&gt;1 -->
<g id="edge1" class="edge">
<title>2&#45;&gt;1</title>
<path fill="none" stroke="grey" stroke-width="2" d="M185.89,-215.7C179.9,-207.47 172.62,-197.48 166.02,-188.42"/>
<polygon fill="grey" stroke="grey" stroke-width="2" points="168.68,-186.13 159.96,-180.1 163.02,-190.25 168.68,-186.13"/>
</g>
<!-- 6 -->
<g id="node6" class="node">
<title>6</title>
<path fill="none" stroke="#d85656" stroke-width="2" d="M294,-180C294,-180 205,-180 205,-180 199,-180 193,-174 193,-168 193,-168 193,-156 193,-156 193,-150 199,-144 205,-144 205,-144 294,-144 294,-144 300,-144 306,-150 306,-156 306,-156 306,-168 306,-168 306,-174 300,-180 294,-180"/>
<text text-anchor="middle" x="249.5" y="-159.5" font-family="sans" font-size="10.00">meryl_make_kmers</text>
</g>
<!-- 2&#45;&gt;6 -->
<g id="edge5" class="edge">
<title>2&#45;&gt;6</title>
<path fill="none" stroke="grey" stroke-width="2" d="M211.11,-215.7C217.1,-207.47 224.38,-197.48 230.98,-188.42"/>
<polygon fill="grey" stroke="grey" stroke-width="2" points="233.98,-190.25 237.04,-180.1 228.32,-186.13 233.98,-190.25"/>
</g>
<!-- 3 -->
<g id="node3" class="node">
<title>3</title>
<path fill="none" stroke="#ced856" stroke-width="2" d="M227.5,-324C227.5,-324 169.5,-324 169.5,-324 163.5,-324 157.5,-318 157.5,-312 157.5,-312 157.5,-300 157.5,-300 157.5,-294 163.5,-288 169.5,-288 169.5,-288 227.5,-288 227.5,-288 233.5,-288 239.5,-294 239.5,-300 239.5,-300 239.5,-312 239.5,-312 239.5,-318 233.5,-324 227.5,-324"/>
<text text-anchor="middle" x="198.5" y="-303.5" font-family="sans" font-size="10.00">trim_illumina</text>
</g>
<!-- 3&#45;&gt;2 -->
<g id="edge2" class="edge">
<title>3&#45;&gt;2</title>
<path fill="none" stroke="grey" stroke-width="2" d="M198.5,-287.7C198.5,-279.98 198.5,-270.71 198.5,-262.11"/>
<polygon fill="grey" stroke="grey" stroke-width="2" points="202,-262.1 198.5,-252.1 195,-262.1 202,-262.1"/>
</g>
<!-- 4 -->
<g id="node4" class="node">
<title>4</title>
<path fill="none" stroke="#d88556" stroke-width="2" d="M228.5,-396C228.5,-396 168.5,-396 168.5,-396 162.5,-396 156.5,-390 156.5,-384 156.5,-384 156.5,-372 156.5,-372 156.5,-366 162.5,-360 168.5,-360 168.5,-360 228.5,-360 228.5,-360 234.5,-360 240.5,-366 240.5,-372 240.5,-372 240.5,-384 240.5,-384 240.5,-390 234.5,-396 228.5,-396"/>
<text text-anchor="middle" x="198.5" y="-375.5" font-family="sans" font-size="10.00">filter_illumina</text>
</g>
<!-- 4&#45;&gt;3 -->
<g id="edge3" class="edge">
<title>4&#45;&gt;3</title>
<path fill="none" stroke="grey" stroke-width="2" d="M198.5,-359.7C198.5,-351.98 198.5,-342.71 198.5,-334.11"/>
<polygon fill="grey" stroke="grey" stroke-width="2" points="202,-334.1 198.5,-324.1 195,-334.1 202,-334.1"/>
</g>
<!-- 5 -->
<g id="node5" class="node">
<title>5</title>
<path fill="none" stroke="#56d89a" stroke-width="2" d="M231.5,-468C231.5,-468 165.5,-468 165.5,-468 159.5,-468 153.5,-462 153.5,-456 153.5,-456 153.5,-444 153.5,-444 153.5,-438 159.5,-432 165.5,-432 165.5,-432 231.5,-432 231.5,-432 237.5,-432 243.5,-438 243.5,-444 243.5,-444 243.5,-456 243.5,-456 243.5,-462 237.5,-468 231.5,-468"/>
<text text-anchor="middle" x="198.5" y="-447.5" font-family="sans" font-size="10.00">repair_illumina</text>
</g>
<!-- 5&#45;&gt;4 -->
<g id="edge4" class="edge">
<title>5&#45;&gt;4</title>
<path fill="none" stroke="grey" stroke-width="2" d="M198.5,-431.7C198.5,-423.98 198.5,-414.71 198.5,-406.11"/>
<polygon fill="grey" stroke="grey" stroke-width="2" points="202,-406.1 198.5,-396.1 195,-406.1 202,-406.1"/>
</g>
<!-- 8 -->
<g id="node8" class="node">
<title>8</title>
<path fill="none" stroke="#d8b456" stroke-width="2" d="M222,-108C222,-108 137,-108 137,-108 131,-108 125,-102 125,-96 125,-96 125,-84 125,-84 125,-78 131,-72 137,-72 137,-72 222,-72 222,-72 228,-72 234,-78 234,-84 234,-84 234,-96 234,-96 234,-102 228,-108 222,-108"/>
<text text-anchor="middle" x="179.5" y="-87.5" font-family="sans" font-size="10.00">meryl_filter_kmers</text>
</g>
<!-- 6&#45;&gt;8 -->
<g id="edge8" class="edge">
<title>6&#45;&gt;8</title>
<path fill="none" stroke="grey" stroke-width="2" d="M232.2,-143.7C223.64,-135.14 213.16,-124.66 203.8,-115.3"/>
<polygon fill="grey" stroke="grey" stroke-width="2" points="206.15,-112.7 196.6,-108.1 201.2,-117.65 206.15,-112.7"/>
</g>
<!-- 10 -->
<g id="node10" class="node">
<title>10</title>
<path fill="none" stroke="#56d8c9" stroke-width="2" d="M374.5,-108C374.5,-108 264.5,-108 264.5,-108 258.5,-108 252.5,-102 252.5,-96 252.5,-96 252.5,-84 252.5,-84 252.5,-78 258.5,-72 264.5,-72 264.5,-72 374.5,-72 374.5,-72 380.5,-72 386.5,-78 386.5,-84 386.5,-84 386.5,-96 386.5,-96 386.5,-102 380.5,-108 374.5,-108"/>
<text text-anchor="middle" x="319.5" y="-87.5" font-family="sans" font-size="10.00">merqury_kmer_analysis</text>
</g>
<!-- 6&#45;&gt;10 -->
<g id="edge9" class="edge">
<title>6&#45;&gt;10</title>
<path fill="none" stroke="grey" stroke-width="2" d="M266.8,-143.7C275.36,-135.14 285.84,-124.66 295.2,-115.3"/>
<polygon fill="grey" stroke="grey" stroke-width="2" points="297.8,-117.65 302.4,-108.1 292.85,-112.7 297.8,-117.65"/>
</g>
<!-- 7 -->
<g id="node7" class="node">
<title>7</title>
<path fill="none" stroke="#70d856" stroke-width="2" d="M169,-36C169,-36 64,-36 64,-36 58,-36 52,-30 52,-24 52,-24 52,-12 52,-12 52,-6 58,0 64,0 64,0 169,0 169,0 175,0 181,-6 181,-12 181,-12 181,-24 181,-24 181,-30 175,-36 169,-36"/>
<text text-anchor="middle" x="116.5" y="-15.5" font-family="sans" font-size="10.00">meryl_intersect_kmers</text>
</g>
<!-- 8&#45;&gt;7 -->
<g id="edge6" class="edge">
<title>8&#45;&gt;7</title>
<path fill="none" stroke="grey" stroke-width="2" d="M163.93,-71.7C156.3,-63.22 146.98,-52.86 138.62,-43.58"/>
<polygon fill="grey" stroke="grey" stroke-width="2" points="141.19,-41.2 131.89,-36.1 135.98,-45.88 141.19,-41.2"/>
</g>
<!-- 9 -->
<g id="node9" class="node">
<title>9</title>
<path fill="none" stroke="#56b1d8" stroke-width="2" d="M95,-108C95,-108 12,-108 12,-108 6,-108 0,-102 0,-96 0,-96 0,-84 0,-84 0,-78 6,-72 12,-72 12,-72 95,-72 95,-72 101,-72 107,-78 107,-84 107,-84 107,-96 107,-96 107,-102 101,-108 95,-108"/>
<text text-anchor="middle" x="53.5" y="-87.5" font-family="sans" font-size="10.00">meryl_genome_db</text>
</g>
<!-- 9&#45;&gt;7 -->
<g id="edge7" class="edge">
<title>9&#45;&gt;7</title>
<path fill="none" stroke="grey" stroke-width="2" d="M69.07,-71.7C76.7,-63.22 86.02,-52.86 94.38,-43.58"/>
<polygon fill="grey" stroke="grey" stroke-width="2" points="97.02,-45.88 101.11,-36.1 91.81,-41.2 97.02,-45.88"/>
</g>
</g>
</svg>
