<?xml version="1.0" encoding="UTF-8" standalone="no"?>
<!DOCTYPE svg PUBLIC "-//W3C//DTD SVG 1.1//EN"
 "http://www.w3.org/Graphics/SVG/1.1/DTD/svg11.dtd">
<!-- Generated by graphviz version 2.43.0 (0)
 -->
<!-- Title: snakemake_dag Pages: 1 -->
<svg width="512pt" height="476pt"
 viewBox="0.00 0.00 511.50 476.00" xmlns="http://www.w3.org/2000/svg" xmlns:xlink="http://www.w3.org/1999/xlink">
<g id="graph0" class="graph" transform="scale(1 1) rotate(0) translate(4 472)">
<title>snakemake_dag</title>
<polygon fill="white" stroke="transparent" points="-4,4 -4,-472 507.5,-472 507.5,4 -4,4"/>
<!-- 1 -->
<g id="node1" class="node">
<title>1</title>
<path fill="none" stroke="#56d8b9" stroke-width="2" d="M214.5,-180C214.5,-180 184.5,-180 184.5,-180 178.5,-180 172.5,-174 172.5,-168 172.5,-168 172.5,-156 172.5,-156 172.5,-150 178.5,-144 184.5,-144 184.5,-144 214.5,-144 214.5,-144 220.5,-144 226.5,-150 226.5,-156 226.5,-156 226.5,-168 226.5,-168 226.5,-174 220.5,-180 214.5,-180"/>
<text text-anchor="middle" x="199.5" y="-159.5" font-family="sans" font-size="10.00">bbnorm</text>
</g>
<!-- 2 -->
<g id="node2" class="node">
<title>2</title>
<path fill="none" stroke="#d85656" stroke-width="2" d="M290.5,-252C290.5,-252 210.5,-252 210.5,-252 204.5,-252 198.5,-246 198.5,-240 198.5,-240 198.5,-228 198.5,-228 198.5,-222 204.5,-216 210.5,-216 210.5,-216 290.5,-216 290.5,-216 296.5,-216 302.5,-222 302.5,-228 302.5,-228 302.5,-240 302.5,-240 302.5,-246 296.5,-252 290.5,-252"/>
<text text-anchor="middle" x="250.5" y="-231.5" font-family="sans" font-size="10.00">combine_illumina</text>
</g>
<!-- 2&#45;&gt;1 -->
<g id="edge1" class="edge">
<title>2&#45;&gt;1</title>
<path fill="none" stroke="grey" stroke-width="2" d="M237.89,-215.7C231.9,-207.47 224.62,-197.48 218.02,-188.42"/>
<polygon fill="grey" stroke="grey" stroke-width="2" points="220.68,-186.13 211.96,-180.1 215.02,-190.25 220.68,-186.13"/>
</g>
<!-- 8 -->
<g id="node8" class="node">
<title>8</title>
<path fill="none" stroke="#d87d56" stroke-width="2" d="M346,-180C346,-180 257,-180 257,-180 251,-180 245,-174 245,-168 245,-168 245,-156 245,-156 245,-150 251,-144 257,-144 257,-144 346,-144 346,-144 352,-144 358,-150 358,-156 358,-156 358,-168 358,-168 358,-174 352,-180 346,-180"/>
<text text-anchor="middle" x="301.5" y="-159.5" font-family="sans" font-size="10.00">meryl_make_kmers</text>
</g>
<!-- 2&#45;&gt;8 -->
<g id="edge7" class="edge">
<title>2&#45;&gt;8</title>
<path fill="none" stroke="grey" stroke-width="2" d="M263.11,-215.7C269.1,-207.47 276.38,-197.48 282.98,-188.42"/>
<polygon fill="grey" stroke="grey" stroke-width="2" points="285.98,-190.25 289.04,-180.1 280.32,-186.13 285.98,-190.25"/>
</g>
<!-- 3 -->
<g id="node3" class="node">
<title>3</title>
<path fill="none" stroke="#56d0d8" stroke-width="2" d="M279.5,-324C279.5,-324 221.5,-324 221.5,-324 215.5,-324 209.5,-318 209.5,-312 209.5,-312 209.5,-300 209.5,-300 209.5,-294 215.5,-288 221.5,-288 221.5,-288 279.5,-288 279.5,-288 285.5,-288 291.5,-294 291.5,-300 291.5,-300 291.5,-312 291.5,-312 291.5,-318 285.5,-324 279.5,-324"/>
<text text-anchor="middle" x="250.5" y="-303.5" font-family="sans" font-size="10.00">trim_illumina</text>
</g>
<!-- 3&#45;&gt;2 -->
<g id="edge2" class="edge">
<title>3&#45;&gt;2</title>
<path fill="none" stroke="grey" stroke-width="2" d="M250.5,-287.7C250.5,-279.98 250.5,-270.71 250.5,-262.11"/>
<polygon fill="grey" stroke="grey" stroke-width="2" points="254,-262.1 250.5,-252.1 247,-262.1 254,-262.1"/>
</g>
<!-- 4 -->
<g id="node4" class="node">
<title>4</title>
<path fill="none" stroke="#d8cb56" stroke-width="2" d="M280.5,-396C280.5,-396 220.5,-396 220.5,-396 214.5,-396 208.5,-390 208.5,-384 208.5,-384 208.5,-372 208.5,-372 208.5,-366 214.5,-360 220.5,-360 220.5,-360 280.5,-360 280.5,-360 286.5,-360 292.5,-366 292.5,-372 292.5,-372 292.5,-384 292.5,-384 292.5,-390 286.5,-396 280.5,-396"/>
<text text-anchor="middle" x="250.5" y="-375.5" font-family="sans" font-size="10.00">filter_illumina</text>
</g>
<!-- 4&#45;&gt;3 -->
<g id="edge3" class="edge">
<title>4&#45;&gt;3</title>
<path fill="none" stroke="grey" stroke-width="2" d="M250.5,-359.7C250.5,-351.98 250.5,-342.71 250.5,-334.11"/>
<polygon fill="grey" stroke="grey" stroke-width="2" points="254,-334.1 250.5,-324.1 247,-334.1 254,-334.1"/>
</g>
<!-- 5 -->
<g id="node5" class="node">
<title>5</title>
<path fill="none" stroke="#d8a456" stroke-width="2" d="M283.5,-468C283.5,-468 217.5,-468 217.5,-468 211.5,-468 205.5,-462 205.5,-456 205.5,-456 205.5,-444 205.5,-444 205.5,-438 211.5,-432 217.5,-432 217.5,-432 283.5,-432 283.5,-432 289.5,-432 295.5,-438 295.5,-444 295.5,-444 295.5,-456 295.5,-456 295.5,-462 289.5,-468 283.5,-468"/>
<text text-anchor="middle" x="250.5" y="-447.5" font-family="sans" font-size="10.00">repair_illumina</text>
</g>
<!-- 5&#45;&gt;4 -->
<g id="edge4" class="edge">
<title>5&#45;&gt;4</title>
<path fill="none" stroke="grey" stroke-width="2" d="M250.5,-431.7C250.5,-423.98 250.5,-414.71 250.5,-406.11"/>
<polygon fill="grey" stroke="grey" stroke-width="2" points="254,-406.1 250.5,-396.1 247,-406.1 254,-406.1"/>
</g>
<!-- 6 -->
<g id="node6" class="node">
<title>6</title>
<path fill="none" stroke="#8fd856" stroke-width="2" d="M367,-36C367,-36 236,-36 236,-36 230,-36 224,-30 224,-24 224,-24 224,-12 224,-12 224,-6 230,0 236,0 236,0 367,0 367,0 373,0 379,-6 379,-12 379,-12 379,-24 379,-24 379,-30 373,-36 367,-36"/>
<text text-anchor="middle" x="301.5" y="-15.5" font-family="sans" font-size="10.00">plot_meryl_kmer_histogram</text>
</g>
<!-- 7 -->
<g id="node7" class="node">
<title>7</title>
<path fill="none" stroke="#567bd8" stroke-width="2" d="M339,-108C339,-108 264,-108 264,-108 258,-108 252,-102 252,-96 252,-96 252,-84 252,-84 252,-78 258,-72 264,-72 264,-72 339,-72 339,-72 345,-72 351,-78 351,-84 351,-84 351,-96 351,-96 351,-102 345,-108 339,-108"/>
<text text-anchor="middle" x="301.5" y="-87.5" font-family="sans" font-size="10.00">meryl_kmer_hist</text>
</g>
<!-- 7&#45;&gt;6 -->
<g id="edge5" class="edge">
<title>7&#45;&gt;6</title>
<path fill="none" stroke="grey" stroke-width="2" d="M301.5,-71.7C301.5,-63.98 301.5,-54.71 301.5,-46.11"/>
<polygon fill="grey" stroke="grey" stroke-width="2" points="305,-46.1 301.5,-36.1 298,-46.1 305,-46.1"/>
</g>
<!-- 8&#45;&gt;7 -->
<g id="edge6" class="edge">
<title>8&#45;&gt;7</title>
<path fill="none" stroke="grey" stroke-width="2" d="M301.5,-143.7C301.5,-135.98 301.5,-126.71 301.5,-118.11"/>
<polygon fill="grey" stroke="grey" stroke-width="2" points="305,-118.1 301.5,-108.1 298,-118.1 305,-118.1"/>
</g>
<!-- 10 -->
<g id="node10" class="node">
<title>10</title>
<path fill="none" stroke="#56d892" stroke-width="2" d="M222,-108C222,-108 137,-108 137,-108 131,-108 125,-102 125,-96 125,-96 125,-84 125,-84 125,-78 131,-72 137,-72 137,-72 222,-72 222,-72 228,-72 234,-78 234,-84 234,-84 234,-96 234,-96 234,-102 228,-108 222,-108"/>
<text text-anchor="middle" x="179.5" y="-87.5" font-family="sans" font-size="10.00">meryl_filter_kmers</text>
</g>
<!-- 8&#45;&gt;10 -->
<g id="edge10" class="edge">
<title>8&#45;&gt;10</title>
<path fill="none" stroke="grey" stroke-width="2" d="M271.66,-143.88C255.56,-134.64 235.5,-123.13 218.21,-113.21"/>
<polygon fill="grey" stroke="grey" stroke-width="2" points="219.87,-110.13 209.46,-108.19 216.39,-116.2 219.87,-110.13"/>
</g>
<!-- 12 -->
<g id="node12" class="node">
<title>12</title>
<path fill="none" stroke="#56a9d8" stroke-width="2" d="M491.5,-108C491.5,-108 381.5,-108 381.5,-108 375.5,-108 369.5,-102 369.5,-96 369.5,-96 369.5,-84 369.5,-84 369.5,-78 375.5,-72 381.5,-72 381.5,-72 491.5,-72 491.5,-72 497.5,-72 503.5,-78 503.5,-84 503.5,-84 503.5,-96 503.5,-96 503.5,-102 497.5,-108 491.5,-108"/>
<text text-anchor="middle" x="436.5" y="-87.5" font-family="sans" font-size="10.00">merqury_kmer_analysis</text>
</g>
<!-- 8&#45;&gt;12 -->
<g id="edge11" class="edge">
<title>8&#45;&gt;12</title>
<path fill="none" stroke="grey" stroke-width="2" d="M334.52,-143.88C352.58,-134.51 375.15,-122.81 394.45,-112.8"/>
<polygon fill="grey" stroke="grey" stroke-width="2" points="396.08,-115.9 403.35,-108.19 392.86,-109.69 396.08,-115.9"/>
</g>
<!-- 9 -->
<g id="node9" class="node">
<title>9</title>
<path fill="none" stroke="#68d856" stroke-width="2" d="M150,-36C150,-36 45,-36 45,-36 39,-36 33,-30 33,-24 33,-24 33,-12 33,-12 33,-6 39,0 45,0 45,0 150,0 150,0 156,0 162,-6 162,-12 162,-12 162,-24 162,-24 162,-30 156,-36 150,-36"/>
<text text-anchor="middle" x="97.5" y="-15.5" font-family="sans" font-size="10.00">meryl_intersect_kmers</text>
</g>
<!-- 10&#45;&gt;9 -->
<g id="edge8" class="edge">
<title>10&#45;&gt;9</title>
<path fill="none" stroke="grey" stroke-width="2" d="M159.23,-71.7C149,-62.97 136.44,-52.24 125.32,-42.75"/>
<polygon fill="grey" stroke="grey" stroke-width="2" points="127.41,-39.94 117.54,-36.1 122.87,-45.26 127.41,-39.94"/>
</g>
<!-- 11 -->
<g id="node11" class="node">
<title>11</title>
<path fill="none" stroke="#b6d856" stroke-width="2" d="M95,-108C95,-108 12,-108 12,-108 6,-108 0,-102 0,-96 0,-96 0,-84 0,-84 0,-78 6,-72 12,-72 12,-72 95,-72 95,-72 101,-72 107,-78 107,-84 107,-84 107,-96 107,-96 107,-102 101,-108 95,-108"/>
<text text-anchor="middle" x="53.5" y="-87.5" font-family="sans" font-size="10.00">meryl_genome_db</text>
</g>
<!-- 11&#45;&gt;9 -->
<g id="edge9" class="edge">
<title>11&#45;&gt;9</title>
<path fill="none" stroke="grey" stroke-width="2" d="M64.38,-71.7C69.49,-63.56 75.7,-53.69 81.34,-44.7"/>
<polygon fill="grey" stroke="grey" stroke-width="2" points="84.39,-46.43 86.75,-36.1 78.46,-42.71 84.39,-46.43"/>
</g>
</g>
</svg>
